<svg xmlns="http://www.w3.org/2000/svg" viewBox="0 0 400 600" fill="none">
  <defs>
    <linearGradient id="sky" x1="0" y1="0" x2="0" y2="1">
      <stop offset="0%" stop-color="#2e1065"/>
      <stop offset="45%" stop-color="#6b21a8"/>
      <stop offset="100%" stop-color="#c4b5fd"/>
    </linearGradient>
    <radialGradient id="glow" cx="50%" cy="70%" r="55%">
      <stop offset="0%" stop-color="#f5f3ff" stop-opacity="0.45"/>
      <stop offset="100%" stop-color="#e9d5ff" stop-opacity="0"/>
    </radialGradient>
    <filter id="blur"><feGaussianBlur stdDeviation="8"/></filter>
  </defs>
  <rect width="400" height="600" fill="url(#sky)"/>
  <rect width="400" height="600" fill="url(#glow)"/>
  <!-- stars -->
  <circle cx="236.0" cy="23.1" r="0.6" fill="#fff" opacity="0.25"/><circle cx="36.0" cy="125.4" r="1" fill="#fff" opacity="0.37"/><circle cx="224.0" cy="46.2" r="1.4" fill="#fff" opacity="0.49"/><circle cx="24.0" cy="148.5" r="0.6" fill="#fff" opacity="0.61"/><circle cx="212.0" cy="69.3" r="1" fill="#fff" opacity="0.73"/><circle cx="12.0" cy="171.6" r="1.4" fill="#fff" opacity="0.25"/><circle cx="200.0" cy="92.4" r="0.6" fill="#fff" opacity="0.37"/><circle cx="0.0" cy="13.2" r="1" fill="#fff" opacity="0.49"/><circle cx="188.0" cy="115.5" r="1.4" fill="#fff" opacity="0.61"/><circle cx="376.0" cy="36.3" r="0.6" fill="#fff" opacity="0.73"/><circle cx="176.0" cy="138.6" r="1" fill="#fff" opacity="0.25"/><circle cx="364.0" cy="59.4" r="1.4" fill="#fff" opacity="0.37"/><circle cx="164.0" cy="161.7" r="0.6" fill="#fff" opacity="0.49"/><circle cx="352.0" cy="82.5" r="1" fill="#fff" opacity="0.61"/><circle cx="152.0" cy="3.3" r="1.4" fill="#fff" opacity="0.73"/><circle cx="340.0" cy="105.6" r="0.6" fill="#fff" opacity="0.25"/><circle cx="140.0" cy="26.4" r="1" fill="#fff" opacity="0.37"/><circle cx="328.0" cy="128.7" r="1.4" fill="#fff" opacity="0.49"/><circle cx="128.0" cy="49.5" r="0.6" fill="#fff" opacity="0.61"/><circle cx="316.0" cy="151.8" r="1" fill="#fff" opacity="0.73"/><circle cx="116.0" cy="72.6" r="1.4" fill="#fff" opacity="0.25"/><circle cx="304.0" cy="174.9" r="0.6" fill="#fff" opacity="0.37"/><circle cx="104.0" cy="95.7" r="1" fill="#fff" opacity="0.49"/><circle cx="292.0" cy="16.5" r="1.4" fill="#fff" opacity="0.61"/><circle cx="92.0" cy="118.8" r="0.6" fill="#fff" opacity="0.73"/><circle cx="280.0" cy="39.6" r="1" fill="#fff" opacity="0.25"/><circle cx="80.0" cy="141.9" r="1.4" fill="#fff" opacity="0.37"/><circle cx="268.0" cy="62.7" r="0.6" fill="#fff" opacity="0.49"/>
  <!-- moon / energy orb -->
  <circle cx="312" cy="108" r="64.8" fill="#e9d5ff" opacity="0.15" filter="url(#blur)"/>
  <circle cx="312" cy="108" r="36" fill="#f5f3ff" opacity="0.9"/>
  <!-- distant mountains -->
  <path d="M0 372 L80 288 L152 348 L220.00000000000003 252 L288 330 L400 300 L400 600 L0 600Z" fill="#1e1033" opacity="0.85"/>
  <!-- city / forest silhouette -->
  <path d="M0 432 L28.571428571428573 405 L61.9047619047619 388 L95.23809523809523 411 L128.57142857142858 394 L161.9047619047619 417 L195.23809523809527 400 L228.57142857142858 383 L261.9047619047619 406 L295.2380952380952 389 L328.57142857142856 412 L361.9047619047619 395 L395.2380952380952 378 L400 432 L400 600 L0 600Z" fill="#000" opacity="0.55"/>
  <!-- speed lines -->
  <g opacity="0.12" stroke="#f5f3ff" stroke-width="1.5">
    <line x1="0" y1="210" x2="140" y2="228"/>
    <line x1="0" y1="252" x2="112.00000000000001" y2="264"/>
    <line x1="400" y1="180" x2="260" y2="198"/>
  </g>
  <!-- character silhouette -->
  <g transform="translate(168 168.00000000000003)">
    <ellipse cx="40" cy="95" rx="55" ry="18" fill="#e9d5ff" opacity="0.35" filter="url(#blur)"/>
    <path d="M38 22 C52 8 62 20 58 38 C68 44 74 58 68 72 L70 118 L10 118 L12 72 C6 58 12 44 22 38 C18 20 28 8 38 22Z" fill="#0a0614"/>
      <path d="M28 20 C32 4 48 4 52 20 C46 12 34 12 28 20Z" fill="#12081f"/><circle cx="34" cy="40" r="2.5" fill="#f5f3ff"/><circle cx="46" cy="40" r="2.5" fill="#f5f3ff"/>
  </g>
  <!-- foreground cinematic bars -->
  <rect y="596" width="400" height="4" fill="#e9d5ff" opacity="0.6"/>
  <rect width="400" height="3" fill="#e9d5ff" opacity="0.35"/>
</svg>