<svg xmlns="http://www.w3.org/2000/svg" viewBox="0 0 400 280" fill="none">
  <defs>
    <linearGradient id="sky" x1="0" y1="0" x2="0" y2="1">
      <stop offset="0%" stop-color="#052e2b"/>
      <stop offset="45%" stop-color="#0f766e"/>
      <stop offset="100%" stop-color="#14b8a6"/>
    </linearGradient>
    <radialGradient id="glow" cx="50%" cy="70%" r="55%">
      <stop offset="0%" stop-color="#99f6e4" stop-opacity="0.45"/>
      <stop offset="100%" stop-color="#2dd4bf" stop-opacity="0"/>
    </radialGradient>
    <filter id="blur"><feGaussianBlur stdDeviation="8"/></filter>
  </defs>
  <rect width="400" height="280" fill="url(#sky)"/>
  <rect width="400" height="280" fill="url(#glow)"/>
  <!-- stars -->
  <circle cx="108.0" cy="10.8" r="0.6" fill="#fff" opacity="0.25"/><circle cx="296.0" cy="58.5" r="1" fill="#fff" opacity="0.37"/><circle cx="96.0" cy="21.6" r="1.4" fill="#fff" opacity="0.49"/><circle cx="284.0" cy="69.3" r="0.6" fill="#fff" opacity="0.61"/><circle cx="84.0" cy="32.3" r="1" fill="#fff" opacity="0.73"/><circle cx="272.0" cy="80.1" r="1.4" fill="#fff" opacity="0.25"/><circle cx="72.0" cy="43.1" r="0.6" fill="#fff" opacity="0.37"/><circle cx="260.0" cy="6.2" r="1" fill="#fff" opacity="0.49"/><circle cx="60.0" cy="53.9" r="1.4" fill="#fff" opacity="0.61"/><circle cx="248.0" cy="16.9" r="0.6" fill="#fff" opacity="0.73"/><circle cx="48.0" cy="64.7" r="1" fill="#fff" opacity="0.25"/><circle cx="236.0" cy="27.7" r="1.4" fill="#fff" opacity="0.37"/><circle cx="36.0" cy="75.5" r="0.6" fill="#fff" opacity="0.49"/><circle cx="224.0" cy="38.5" r="1" fill="#fff" opacity="0.61"/><circle cx="24.0" cy="1.5" r="1.4" fill="#fff" opacity="0.73"/><circle cx="212.0" cy="49.3" r="0.6" fill="#fff" opacity="0.25"/><circle cx="12.0" cy="12.3" r="1" fill="#fff" opacity="0.37"/><circle cx="200.0" cy="60.1" r="1.4" fill="#fff" opacity="0.49"/><circle cx="0.0" cy="23.1" r="0.6" fill="#fff" opacity="0.61"/><circle cx="188.0" cy="70.8" r="1" fill="#fff" opacity="0.73"/><circle cx="376.0" cy="33.9" r="1.4" fill="#fff" opacity="0.25"/><circle cx="176.0" cy="81.6" r="0.6" fill="#fff" opacity="0.37"/><circle cx="364.0" cy="44.7" r="1" fill="#fff" opacity="0.49"/><circle cx="164.0" cy="7.7" r="1.4" fill="#fff" opacity="0.61"/><circle cx="352.0" cy="55.4" r="0.6" fill="#fff" opacity="0.73"/><circle cx="152.0" cy="18.5" r="1" fill="#fff" opacity="0.25"/><circle cx="340.0" cy="66.2" r="1.4" fill="#fff" opacity="0.37"/><circle cx="140.0" cy="29.3" r="0.6" fill="#fff" opacity="0.49"/>
  <!-- moon / energy orb -->
  <circle cx="312" cy="50.4" r="45.36" fill="#2dd4bf" opacity="0.15" filter="url(#blur)"/>
  <circle cx="312" cy="50.4" r="25.2" fill="#99f6e4" opacity="0.9"/>
  <!-- distant mountains -->
  <path d="M0 173.6 L80 134.4 L152 162.39999999999998 L220.00000000000003 117.6 L288 154 L400 140 L400 280 L0 280Z" fill="#041816" opacity="0.85"/>
  <!-- city / forest silhouette -->
  <path d="M0 201.6 L28.571428571428573 169.6 L61.9047619047619 152.6 L95.23809523809523 175.6 L128.57142857142858 158.6 L161.9047619047619 181.6 L195.23809523809527 164.6 L228.57142857142858 147.6 L261.9047619047619 170.6 L295.2380952380952 153.6 L328.57142857142856 176.6 L361.9047619047619 159.6 L395.2380952380952 182.6 L400 201.6 L400 280 L0 280Z" fill="#000" opacity="0.55"/>
  <!-- speed lines -->
  <g opacity="0.12" stroke="#99f6e4" stroke-width="1.5">
    <line x1="0" y1="98" x2="140" y2="106.4"/>
    <line x1="0" y1="117.6" x2="112.00000000000001" y2="123.2"/>
    <line x1="400" y1="84" x2="260" y2="92.4"/>
  </g>
  <!-- character silhouette -->
  <g transform="translate(168 78.4)">
    <ellipse cx="40" cy="95" rx="55" ry="18" fill="#2dd4bf" opacity="0.35" filter="url(#blur)"/>
    <path d="M38 22 C52 8 62 20 58 38 C68 44 74 58 68 72 L70 118 L10 118 L12 72 C6 58 12 44 22 38 C18 20 28 8 38 22Z" fill="#0a0614"/>
      <path d="M28 20 C32 4 48 4 52 20 C46 12 34 12 28 20Z" fill="#12081f"/><circle cx="34" cy="40" r="2.5" fill="#99f6e4"/><circle cx="46" cy="40" r="2.5" fill="#99f6e4"/>
  </g>
  <!-- foreground cinematic bars -->
  <rect y="276" width="400" height="4" fill="#2dd4bf" opacity="0.6"/>
  <rect width="400" height="3" fill="#2dd4bf" opacity="0.35"/>
</svg>