<svg xmlns="http://www.w3.org/2000/svg" viewBox="0 0 400 280" fill="none">
  <defs>
    <linearGradient id="sky" x1="0" y1="0" x2="0" y2="1">
      <stop offset="0%" stop-color="#1c1008"/>
      <stop offset="45%" stop-color="#c2410c"/>
      <stop offset="100%" stop-color="#f97316"/>
    </linearGradient>
    <radialGradient id="glow" cx="50%" cy="70%" r="55%">
      <stop offset="0%" stop-color="#fdba74" stop-opacity="0.45"/>
      <stop offset="100%" stop-color="#fb923c" stop-opacity="0"/>
    </radialGradient>
    <filter id="blur"><feGaussianBlur stdDeviation="8"/></filter>
  </defs>
  <rect width="400" height="280" fill="url(#sky)"/>
  <rect width="400" height="280" fill="url(#glow)"/>
  <!-- stars -->
  <circle cx="184.0" cy="10.8" r="0.6" fill="#fff" opacity="0.25"/><circle cx="372.0" cy="58.5" r="1" fill="#fff" opacity="0.37"/><circle cx="172.0" cy="21.6" r="1.4" fill="#fff" opacity="0.49"/><circle cx="360.0" cy="69.3" r="0.6" fill="#fff" opacity="0.61"/><circle cx="160.0" cy="32.3" r="1" fill="#fff" opacity="0.73"/><circle cx="348.0" cy="80.1" r="1.4" fill="#fff" opacity="0.25"/><circle cx="148.0" cy="43.1" r="0.6" fill="#fff" opacity="0.37"/><circle cx="336.0" cy="6.2" r="1" fill="#fff" opacity="0.49"/><circle cx="136.0" cy="53.9" r="1.4" fill="#fff" opacity="0.61"/><circle cx="324.0" cy="16.9" r="0.6" fill="#fff" opacity="0.73"/><circle cx="124.0" cy="64.7" r="1" fill="#fff" opacity="0.25"/><circle cx="312.0" cy="27.7" r="1.4" fill="#fff" opacity="0.37"/><circle cx="112.0" cy="75.5" r="0.6" fill="#fff" opacity="0.49"/><circle cx="300.0" cy="38.5" r="1" fill="#fff" opacity="0.61"/><circle cx="100.0" cy="1.5" r="1.4" fill="#fff" opacity="0.73"/><circle cx="288.0" cy="49.3" r="0.6" fill="#fff" opacity="0.25"/><circle cx="88.0" cy="12.3" r="1" fill="#fff" opacity="0.37"/><circle cx="276.0" cy="60.1" r="1.4" fill="#fff" opacity="0.49"/><circle cx="76.0" cy="23.1" r="0.6" fill="#fff" opacity="0.61"/><circle cx="264.0" cy="70.8" r="1" fill="#fff" opacity="0.73"/><circle cx="64.0" cy="33.9" r="1.4" fill="#fff" opacity="0.25"/><circle cx="252.0" cy="81.6" r="0.6" fill="#fff" opacity="0.37"/><circle cx="52.0" cy="44.7" r="1" fill="#fff" opacity="0.49"/><circle cx="240.0" cy="7.7" r="1.4" fill="#fff" opacity="0.61"/><circle cx="40.0" cy="55.4" r="0.6" fill="#fff" opacity="0.73"/><circle cx="228.0" cy="18.5" r="1" fill="#fff" opacity="0.25"/><circle cx="28.0" cy="66.2" r="1.4" fill="#fff" opacity="0.37"/><circle cx="216.0" cy="29.3" r="0.6" fill="#fff" opacity="0.49"/>
  <!-- moon / energy orb -->
  <circle cx="312" cy="50.4" r="45.36" fill="#fb923c" opacity="0.15" filter="url(#blur)"/>
  <circle cx="312" cy="50.4" r="25.2" fill="#fdba74" opacity="0.9"/>
  <!-- distant mountains -->
  <path d="M0 173.6 L80 134.4 L152 162.39999999999998 L220.00000000000003 117.6 L288 154 L400 140 L400 280 L0 280Z" fill="#1a0f06" opacity="0.85"/>
  <!-- city / forest silhouette -->
  <path d="M0 201.6 L28.571428571428573 175.6 L61.9047619047619 158.6 L95.23809523809523 181.6 L128.57142857142858 164.6 L161.9047619047619 147.6 L195.23809523809527 170.6 L228.57142857142858 153.6 L261.9047619047619 176.6 L295.2380952380952 159.6 L328.57142857142856 182.6 L361.9047619047619 165.6 L395.2380952380952 148.6 L400 201.6 L400 280 L0 280Z" fill="#000" opacity="0.55"/>
  <!-- speed lines -->
  <g opacity="0.12" stroke="#fdba74" stroke-width="1.5">
    <line x1="0" y1="98" x2="140" y2="106.4"/>
    <line x1="0" y1="117.6" x2="112.00000000000001" y2="123.2"/>
    <line x1="400" y1="84" x2="260" y2="92.4"/>
  </g>
  <!-- character silhouette -->
  <g transform="translate(168 78.4)">
    <ellipse cx="40" cy="95" rx="55" ry="18" fill="#fb923c" opacity="0.35" filter="url(#blur)"/>
    <path d="M38 30 C52 18 58 34 54 50 C64 58 68 72 62 86 L64 110 L14 110 L16 86 C10 72 14 58 24 50 C20 34 28 22 38 30Z" fill="#1a0f06"/>
      <circle cx="40" cy="32" r="12" fill="#fb923c" opacity="0.25"/><circle cx="34" cy="40" r="2.5" fill="#fdba74"/><circle cx="46" cy="40" r="2.5" fill="#fdba74"/>
  </g>
  <!-- foreground cinematic bars -->
  <rect y="276" width="400" height="4" fill="#fb923c" opacity="0.6"/>
  <rect width="400" height="3" fill="#fb923c" opacity="0.35"/>
</svg>