<svg xmlns="http://www.w3.org/2000/svg" viewBox="0 0 400 280" fill="none">
  <defs>
    <linearGradient id="sky" x1="0" y1="0" x2="0" y2="1">
      <stop offset="0%" stop-color="#0f0a1a"/>
      <stop offset="45%" stop-color="#4c1d95"/>
      <stop offset="100%" stop-color="#7e22ce"/>
    </linearGradient>
    <radialGradient id="glow" cx="50%" cy="70%" r="55%">
      <stop offset="0%" stop-color="#d8b4fe" stop-opacity="0.45"/>
      <stop offset="100%" stop-color="#a855f7" stop-opacity="0"/>
    </radialGradient>
    <filter id="blur"><feGaussianBlur stdDeviation="8"/></filter>
  </defs>
  <rect width="400" height="280" fill="url(#sky)"/>
  <rect width="400" height="280" fill="url(#glow)"/>
  <!-- stars -->
  <circle cx="28.0" cy="10.8" r="0.6" fill="#fff" opacity="0.25"/><circle cx="216.0" cy="58.5" r="1" fill="#fff" opacity="0.37"/><circle cx="16.0" cy="21.6" r="1.4" fill="#fff" opacity="0.49"/><circle cx="204.0" cy="69.3" r="0.6" fill="#fff" opacity="0.61"/><circle cx="4.0" cy="32.3" r="1" fill="#fff" opacity="0.73"/><circle cx="192.0" cy="80.1" r="1.4" fill="#fff" opacity="0.25"/><circle cx="380.0" cy="43.1" r="0.6" fill="#fff" opacity="0.37"/><circle cx="180.0" cy="6.2" r="1" fill="#fff" opacity="0.49"/><circle cx="368.0" cy="53.9" r="1.4" fill="#fff" opacity="0.61"/><circle cx="168.0" cy="16.9" r="0.6" fill="#fff" opacity="0.73"/><circle cx="356.0" cy="64.7" r="1" fill="#fff" opacity="0.25"/><circle cx="156.0" cy="27.7" r="1.4" fill="#fff" opacity="0.37"/><circle cx="344.0" cy="75.5" r="0.6" fill="#fff" opacity="0.49"/><circle cx="144.0" cy="38.5" r="1" fill="#fff" opacity="0.61"/><circle cx="332.0" cy="1.5" r="1.4" fill="#fff" opacity="0.73"/><circle cx="132.0" cy="49.3" r="0.6" fill="#fff" opacity="0.25"/><circle cx="320.0" cy="12.3" r="1" fill="#fff" opacity="0.37"/><circle cx="120.0" cy="60.1" r="1.4" fill="#fff" opacity="0.49"/><circle cx="308.0" cy="23.1" r="0.6" fill="#fff" opacity="0.61"/><circle cx="108.0" cy="70.8" r="1" fill="#fff" opacity="0.73"/><circle cx="296.0" cy="33.9" r="1.4" fill="#fff" opacity="0.25"/><circle cx="96.0" cy="81.6" r="0.6" fill="#fff" opacity="0.37"/><circle cx="284.0" cy="44.7" r="1" fill="#fff" opacity="0.49"/><circle cx="84.0" cy="7.7" r="1.4" fill="#fff" opacity="0.61"/><circle cx="272.0" cy="55.4" r="0.6" fill="#fff" opacity="0.73"/><circle cx="72.0" cy="18.5" r="1" fill="#fff" opacity="0.25"/><circle cx="260.0" cy="66.2" r="1.4" fill="#fff" opacity="0.37"/><circle cx="60.0" cy="29.3" r="0.6" fill="#fff" opacity="0.49"/>
  <!-- moon / energy orb -->
  <circle cx="312" cy="50.4" r="45.36" fill="#a855f7" opacity="0.15" filter="url(#blur)"/>
  <circle cx="312" cy="50.4" r="25.2" fill="#d8b4fe" opacity="0.9"/>
  <!-- distant mountains -->
  <path d="M0 173.6 L80 134.4 L152 162.39999999999998 L220.00000000000003 117.6 L288 154 L400 140 L400 280 L0 280Z" fill="#0c0814" opacity="0.85"/>
  <!-- city / forest silhouette -->
  <path d="M0 201.6 L28.571428571428573 178.6 L61.9047619047619 161.6 L95.23809523809523 184.6 L128.57142857142858 167.6 L161.9047619047619 150.6 L195.23809523809527 173.6 L228.57142857142858 156.6 L261.9047619047619 179.6 L295.2380952380952 162.6 L328.57142857142856 185.6 L361.9047619047619 168.6 L395.2380952380952 151.6 L400 201.6 L400 280 L0 280Z" fill="#000" opacity="0.55"/>
  <!-- speed lines -->
  <g opacity="0.12" stroke="#d8b4fe" stroke-width="1.5">
    <line x1="0" y1="98" x2="140" y2="106.4"/>
    <line x1="0" y1="117.6" x2="112.00000000000001" y2="123.2"/>
    <line x1="400" y1="84" x2="260" y2="92.4"/>
  </g>
  <!-- character silhouette -->
  <g transform="translate(168 78.4)">
    <ellipse cx="40" cy="95" rx="55" ry="18" fill="#a855f7" opacity="0.35" filter="url(#blur)"/>
    <path d="M38 22 C52 8 62 20 58 38 C68 44 74 58 68 72 L70 118 L10 118 L12 72 C6 58 12 44 22 38 C18 20 28 8 38 22Z" fill="#0a0614"/>
      <path d="M28 20 C32 4 48 4 52 20 C46 12 34 12 28 20Z" fill="#12081f"/><circle cx="34" cy="40" r="2.5" fill="#d8b4fe"/><circle cx="46" cy="40" r="2.5" fill="#d8b4fe"/>
  </g>
  <!-- foreground cinematic bars -->
  <rect y="276" width="400" height="4" fill="#a855f7" opacity="0.6"/>
  <rect width="400" height="3" fill="#a855f7" opacity="0.35"/>
</svg>