<svg xmlns="http://www.w3.org/2000/svg" viewBox="0 0 600 340" fill="none">
  <defs>
    <linearGradient id="sky" x1="0" y1="0" x2="0" y2="1">
      <stop offset="0%" stop-color="#0f172a"/>
      <stop offset="45%" stop-color="#1d4ed8"/>
      <stop offset="100%" stop-color="#3b82f6"/>
    </linearGradient>
    <radialGradient id="glow" cx="50%" cy="70%" r="55%">
      <stop offset="0%" stop-color="#dbeafe" stop-opacity="0.45"/>
      <stop offset="100%" stop-color="#93c5fd" stop-opacity="0"/>
    </radialGradient>
    <filter id="blur"><feGaussianBlur stdDeviation="8"/></filter>
  </defs>
  <rect width="600" height="340" fill="url(#sky)"/>
  <rect width="600" height="340" fill="url(#glow)"/>
  <!-- stars -->
  <circle cx="162.0" cy="13.1" r="0.6" fill="#fff" opacity="0.25"/><circle cx="444.0" cy="71.1" r="1" fill="#fff" opacity="0.37"/><circle cx="144.0" cy="26.2" r="1.4" fill="#fff" opacity="0.49"/><circle cx="426.0" cy="84.2" r="0.6" fill="#fff" opacity="0.61"/><circle cx="126.0" cy="39.3" r="1" fill="#fff" opacity="0.73"/><circle cx="408.0" cy="97.2" r="1.4" fill="#fff" opacity="0.25"/><circle cx="108.0" cy="52.4" r="0.6" fill="#fff" opacity="0.37"/><circle cx="390.0" cy="7.5" r="1" fill="#fff" opacity="0.49"/><circle cx="90.0" cy="65.5" r="1.4" fill="#fff" opacity="0.61"/><circle cx="372.0" cy="20.6" r="0.6" fill="#fff" opacity="0.73"/><circle cx="72.0" cy="78.5" r="1" fill="#fff" opacity="0.25"/><circle cx="354.0" cy="33.7" r="1.4" fill="#fff" opacity="0.37"/><circle cx="54.0" cy="91.6" r="0.6" fill="#fff" opacity="0.49"/><circle cx="336.0" cy="46.8" r="1" fill="#fff" opacity="0.61"/><circle cx="36.0" cy="1.9" r="1.4" fill="#fff" opacity="0.73"/><circle cx="318.0" cy="59.8" r="0.6" fill="#fff" opacity="0.25"/><circle cx="18.0" cy="15.0" r="1" fill="#fff" opacity="0.37"/><circle cx="300.0" cy="72.9" r="1.4" fill="#fff" opacity="0.49"/><circle cx="0.0" cy="28.1" r="0.6" fill="#fff" opacity="0.61"/><circle cx="282.0" cy="86.0" r="1" fill="#fff" opacity="0.73"/><circle cx="564.0" cy="41.1" r="1.4" fill="#fff" opacity="0.25"/><circle cx="264.0" cy="99.1" r="0.6" fill="#fff" opacity="0.37"/><circle cx="546.0" cy="54.2" r="1" fill="#fff" opacity="0.49"/><circle cx="246.0" cy="9.4" r="1.4" fill="#fff" opacity="0.61"/><circle cx="528.0" cy="67.3" r="0.6" fill="#fff" opacity="0.73"/><circle cx="228.0" cy="22.4" r="1" fill="#fff" opacity="0.25"/><circle cx="510.0" cy="80.4" r="1.4" fill="#fff" opacity="0.37"/><circle cx="210.0" cy="35.5" r="0.6" fill="#fff" opacity="0.49"/>
  <!-- moon / energy orb -->
  <circle cx="468" cy="61.199999999999996" r="55.08" fill="#93c5fd" opacity="0.15" filter="url(#blur)"/>
  <circle cx="468" cy="61.199999999999996" r="30.599999999999998" fill="#dbeafe" opacity="0.9"/>
  <!-- distant mountains -->
  <path d="M0 210.8 L120 163.2 L228 197.2 L330 142.79999999999998 L432 187.00000000000003 L600 170 L600 340 L0 340Z" fill="#0c1222" opacity="0.85"/>
  <!-- city / forest silhouette -->
  <path d="M0 244.79999999999998 L42.857142857142854 212.79999999999998 L92.85714285714286 195.79999999999998 L142.85714285714286 218.79999999999998 L192.85714285714286 201.79999999999998 L242.85714285714286 224.79999999999998 L292.85714285714283 207.79999999999998 L342.85714285714283 190.79999999999998 L392.85714285714283 213.79999999999998 L442.85714285714283 196.79999999999998 L492.85714285714283 219.79999999999998 L542.8571428571429 202.79999999999998 L592.8571428571429 225.79999999999998 L600 244.79999999999998 L600 340 L0 340Z" fill="#000" opacity="0.55"/>
  <!-- speed lines -->
  <g opacity="0.12" stroke="#dbeafe" stroke-width="1.5">
    <line x1="0" y1="118.99999999999999" x2="210" y2="129.2"/>
    <line x1="0" y1="142.79999999999998" x2="168.00000000000003" y2="149.6"/>
    <line x1="600" y1="102" x2="390" y2="112.2"/>
  </g>
  <!-- character silhouette -->
  <g transform="translate(272 95.2)">
    <ellipse cx="40" cy="95" rx="55" ry="18" fill="#93c5fd" opacity="0.35" filter="url(#blur)"/>
    <path d="M38 22 C52 8 62 20 58 38 C68 44 74 58 68 72 L70 118 L10 118 L12 72 C6 58 12 44 22 38 C18 20 28 8 38 22Z" fill="#0a0614"/>
      <path d="M28 20 C32 4 48 4 52 20 C46 12 34 12 28 20Z" fill="#12081f"/><circle cx="34" cy="40" r="2.5" fill="#dbeafe"/><circle cx="46" cy="40" r="2.5" fill="#dbeafe"/>
  </g>
  <!-- foreground cinematic bars -->
  <rect y="336" width="600" height="4" fill="#93c5fd" opacity="0.6"/>
  <rect width="600" height="3" fill="#93c5fd" opacity="0.35"/>
</svg>