<svg xmlns="http://www.w3.org/2000/svg" viewBox="0 0 600 340" fill="none">
  <defs>
    <linearGradient id="sky" x1="0" y1="0" x2="0" y2="1">
      <stop offset="0%" stop-color="#042f2e"/>
      <stop offset="45%" stop-color="#115e59"/>
      <stop offset="100%" stop-color="#0d9488"/>
    </linearGradient>
    <radialGradient id="glow" cx="50%" cy="70%" r="55%">
      <stop offset="0%" stop-color="#ccfbf1" stop-opacity="0.45"/>
      <stop offset="100%" stop-color="#5eead4" stop-opacity="0"/>
    </radialGradient>
    <filter id="blur"><feGaussianBlur stdDeviation="8"/></filter>
  </defs>
  <rect width="600" height="340" fill="url(#sky)"/>
  <rect width="600" height="340" fill="url(#glow)"/>
  <!-- stars -->
  <circle cx="84.0" cy="13.1" r="0.6" fill="#fff" opacity="0.25"/><circle cx="366.0" cy="71.1" r="1" fill="#fff" opacity="0.37"/><circle cx="66.0" cy="26.2" r="1.4" fill="#fff" opacity="0.49"/><circle cx="348.0" cy="84.2" r="0.6" fill="#fff" opacity="0.61"/><circle cx="48.0" cy="39.3" r="1" fill="#fff" opacity="0.73"/><circle cx="330.0" cy="97.2" r="1.4" fill="#fff" opacity="0.25"/><circle cx="30.0" cy="52.4" r="0.6" fill="#fff" opacity="0.37"/><circle cx="312.0" cy="7.5" r="1" fill="#fff" opacity="0.49"/><circle cx="12.0" cy="65.5" r="1.4" fill="#fff" opacity="0.61"/><circle cx="294.0" cy="20.6" r="0.6" fill="#fff" opacity="0.73"/><circle cx="576.0" cy="78.5" r="1" fill="#fff" opacity="0.25"/><circle cx="276.0" cy="33.7" r="1.4" fill="#fff" opacity="0.37"/><circle cx="558.0" cy="91.6" r="0.6" fill="#fff" opacity="0.49"/><circle cx="258.0" cy="46.8" r="1" fill="#fff" opacity="0.61"/><circle cx="540.0" cy="1.9" r="1.4" fill="#fff" opacity="0.73"/><circle cx="240.0" cy="59.8" r="0.6" fill="#fff" opacity="0.25"/><circle cx="522.0" cy="15.0" r="1" fill="#fff" opacity="0.37"/><circle cx="222.0" cy="72.9" r="1.4" fill="#fff" opacity="0.49"/><circle cx="504.0" cy="28.1" r="0.6" fill="#fff" opacity="0.61"/><circle cx="204.0" cy="86.0" r="1" fill="#fff" opacity="0.73"/><circle cx="486.0" cy="41.1" r="1.4" fill="#fff" opacity="0.25"/><circle cx="186.0" cy="99.1" r="0.6" fill="#fff" opacity="0.37"/><circle cx="468.0" cy="54.2" r="1" fill="#fff" opacity="0.49"/><circle cx="168.0" cy="9.4" r="1.4" fill="#fff" opacity="0.61"/><circle cx="450.0" cy="67.3" r="0.6" fill="#fff" opacity="0.73"/><circle cx="150.0" cy="22.4" r="1" fill="#fff" opacity="0.25"/><circle cx="432.0" cy="80.4" r="1.4" fill="#fff" opacity="0.37"/><circle cx="132.0" cy="35.5" r="0.6" fill="#fff" opacity="0.49"/>
  <!-- moon / energy orb -->
  <circle cx="468" cy="61.199999999999996" r="55.08" fill="#5eead4" opacity="0.15" filter="url(#blur)"/>
  <circle cx="468" cy="61.199999999999996" r="30.599999999999998" fill="#ccfbf1" opacity="0.9"/>
  <!-- distant mountains -->
  <path d="M0 210.8 L120 163.2 L228 197.2 L330 142.79999999999998 L432 187.00000000000003 L600 170 L600 340 L0 340Z" fill="#031a18" opacity="0.85"/>
  <!-- city / forest silhouette -->
  <path d="M0 244.79999999999998 L42.857142857142854 213.79999999999998 L92.85714285714286 196.79999999999998 L142.85714285714286 219.79999999999998 L192.85714285714286 202.79999999999998 L242.85714285714286 225.79999999999998 L292.85714285714283 208.79999999999998 L342.85714285714283 191.79999999999998 L392.85714285714283 214.79999999999998 L442.85714285714283 197.79999999999998 L492.85714285714283 220.79999999999998 L542.8571428571429 203.79999999999998 L592.8571428571429 226.79999999999998 L600 244.79999999999998 L600 340 L0 340Z" fill="#000" opacity="0.55"/>
  <!-- speed lines -->
  <g opacity="0.12" stroke="#ccfbf1" stroke-width="1.5">
    <line x1="0" y1="118.99999999999999" x2="210" y2="129.2"/>
    <line x1="0" y1="142.79999999999998" x2="168.00000000000003" y2="149.6"/>
    <line x1="600" y1="102" x2="390" y2="112.2"/>
  </g>
  <!-- character silhouette -->
  <g transform="translate(272 95.2)">
    <ellipse cx="40" cy="95" rx="55" ry="18" fill="#5eead4" opacity="0.35" filter="url(#blur)"/>
    <path d="M38 22 C52 8 62 20 58 38 C68 44 74 58 68 72 L70 118 L10 118 L12 72 C6 58 12 44 22 38 C18 20 28 8 38 22Z" fill="#0a0614"/>
      <path d="M28 20 C32 4 48 4 52 20 C46 12 34 12 28 20Z" fill="#12081f"/><circle cx="34" cy="40" r="2.5" fill="#ccfbf1"/><circle cx="46" cy="40" r="2.5" fill="#ccfbf1"/>
  </g>
  <!-- foreground cinematic bars -->
  <rect y="336" width="600" height="4" fill="#5eead4" opacity="0.6"/>
  <rect width="600" height="3" fill="#5eead4" opacity="0.35"/>
</svg>