<svg xmlns="http://www.w3.org/2000/svg" viewBox="0 0 320 480" fill="none">
  <defs>
    <linearGradient id="sky" x1="0" y1="0" x2="0" y2="1">
      <stop offset="0%" stop-color="#0a1628"/>
      <stop offset="45%" stop-color="#1e3a5f"/>
      <stop offset="100%" stop-color="#2563eb"/>
    </linearGradient>
    <radialGradient id="glow" cx="50%" cy="70%" r="55%">
      <stop offset="0%" stop-color="#fcd34d" stop-opacity="0.45"/>
      <stop offset="100%" stop-color="#f59e0b" stop-opacity="0"/>
    </radialGradient>
    <filter id="blur"><feGaussianBlur stdDeviation="8"/></filter>
  </defs>
  <rect width="320" height="480" fill="url(#sky)"/>
  <rect width="320" height="480" fill="url(#glow)"/>
  <!-- stars -->
  <circle cx="3.2" cy="18.5" r="0.6" fill="#fff" opacity="0.25"/><circle cx="153.6" cy="100.3" r="1" fill="#fff" opacity="0.37"/><circle cx="304.0" cy="37.0" r="1.4" fill="#fff" opacity="0.49"/><circle cx="144.0" cy="118.8" r="0.6" fill="#fff" opacity="0.61"/><circle cx="294.4" cy="55.4" r="1" fill="#fff" opacity="0.73"/><circle cx="134.4" cy="137.3" r="1.4" fill="#fff" opacity="0.25"/><circle cx="284.8" cy="73.9" r="0.6" fill="#fff" opacity="0.37"/><circle cx="124.8" cy="10.6" r="1" fill="#fff" opacity="0.49"/><circle cx="275.2" cy="92.4" r="1.4" fill="#fff" opacity="0.61"/><circle cx="115.2" cy="29.0" r="0.6" fill="#fff" opacity="0.73"/><circle cx="265.6" cy="110.9" r="1" fill="#fff" opacity="0.25"/><circle cx="105.6" cy="47.5" r="1.4" fill="#fff" opacity="0.37"/><circle cx="256.0" cy="129.4" r="0.6" fill="#fff" opacity="0.49"/><circle cx="96.0" cy="66.0" r="1" fill="#fff" opacity="0.61"/><circle cx="246.4" cy="2.6" r="1.4" fill="#fff" opacity="0.73"/><circle cx="86.4" cy="84.5" r="0.6" fill="#fff" opacity="0.25"/><circle cx="236.8" cy="21.1" r="1" fill="#fff" opacity="0.37"/><circle cx="76.8" cy="103.0" r="1.4" fill="#fff" opacity="0.49"/><circle cx="227.2" cy="39.6" r="0.6" fill="#fff" opacity="0.61"/><circle cx="67.2" cy="121.4" r="1" fill="#fff" opacity="0.73"/><circle cx="217.6" cy="58.1" r="1.4" fill="#fff" opacity="0.25"/><circle cx="57.6" cy="139.9" r="0.6" fill="#fff" opacity="0.37"/><circle cx="208.0" cy="76.6" r="1" fill="#fff" opacity="0.49"/><circle cx="48.0" cy="13.2" r="1.4" fill="#fff" opacity="0.61"/><circle cx="198.4" cy="95.0" r="0.6" fill="#fff" opacity="0.73"/><circle cx="38.4" cy="31.7" r="1" fill="#fff" opacity="0.25"/><circle cx="188.8" cy="113.5" r="1.4" fill="#fff" opacity="0.37"/><circle cx="28.8" cy="50.2" r="0.6" fill="#fff" opacity="0.49"/>
  <!-- moon / energy orb -->
  <circle cx="249.60000000000002" cy="86.39999999999999" r="51.839999999999996" fill="#f59e0b" opacity="0.15" filter="url(#blur)"/>
  <circle cx="249.60000000000002" cy="86.39999999999999" r="28.799999999999997" fill="#fcd34d" opacity="0.9"/>
  <!-- distant mountains -->
  <path d="M0 297.6 L64 230.39999999999998 L121.6 278.4 L176 201.6 L230.39999999999998 264 L320 240 L320 480 L0 480Z" fill="#0c1a2e" opacity="0.85"/>
  <!-- city / forest silhouette -->
  <path d="M0 345.59999999999997 L22.857142857142858 315.59999999999997 L49.52380952380952 298.59999999999997 L76.19047619047619 321.59999999999997 L102.85714285714286 304.59999999999997 L129.52380952380952 327.59999999999997 L156.1904761904762 310.59999999999997 L182.85714285714286 293.59999999999997 L209.52380952380955 316.59999999999997 L236.19047619047618 299.59999999999997 L262.85714285714283 322.59999999999997 L289.5238095238095 305.59999999999997 L316.19047619047615 328.59999999999997 L320 345.59999999999997 L320 480 L0 480Z" fill="#000" opacity="0.55"/>
  <!-- speed lines -->
  <g opacity="0.12" stroke="#fcd34d" stroke-width="1.5">
    <line x1="0" y1="168" x2="112" y2="182.4"/>
    <line x1="0" y1="201.6" x2="89.60000000000001" y2="211.2"/>
    <line x1="320" y1="144" x2="208" y2="158.4"/>
  </g>
  <!-- character silhouette -->
  <g transform="translate(126.4 134.4)">
    <ellipse cx="40" cy="95" rx="55" ry="18" fill="#f59e0b" opacity="0.35" filter="url(#blur)"/>
    <path d="M40 22 C56 8 64 24 60 42 C72 48 76 62 70 78 L72 118 L10 118 L14 78 C8 62 14 48 24 42 C20 24 30 10 40 22Z" fill="#0a1520"/>
      <path d="M30 12 C34 -2 54 6 58 22 C52 14 36 8 30 12Z" fill="#0c1a2e"/>
      <ellipse cx="52" cy="28" rx="14" ry="6" fill="#f59e0b" opacity="0.7"/><circle cx="34" cy="40" r="2.5" fill="#fcd34d"/><circle cx="46" cy="40" r="2.5" fill="#fcd34d"/>
  </g>
  <!-- foreground cinematic bars -->
  <rect y="476" width="320" height="4" fill="#f59e0b" opacity="0.6"/>
  <rect width="320" height="3" fill="#f59e0b" opacity="0.35"/>
</svg>