<svg xmlns="http://www.w3.org/2000/svg" viewBox="0 0 320 480" fill="none">
  <defs>
    <linearGradient id="sky" x1="0" y1="0" x2="0" y2="1">
      <stop offset="0%" stop-color="#030712"/>
      <stop offset="45%" stop-color="#1e1b4b"/>
      <stop offset="100%" stop-color="#312e81"/>
    </linearGradient>
    <radialGradient id="glow" cx="50%" cy="70%" r="55%">
      <stop offset="0%" stop-color="#93c5fd" stop-opacity="0.45"/>
      <stop offset="100%" stop-color="#3b82f6" stop-opacity="0"/>
    </radialGradient>
    <filter id="blur"><feGaussianBlur stdDeviation="8"/></filter>
  </defs>
  <rect width="320" height="480" fill="url(#sky)"/>
  <rect width="320" height="480" fill="url(#glow)"/>
  <!-- stars -->
  <circle cx="169.6" cy="18.5" r="0.6" fill="#fff" opacity="0.25"/><circle cx="9.6" cy="100.3" r="1" fill="#fff" opacity="0.37"/><circle cx="160.0" cy="37.0" r="1.4" fill="#fff" opacity="0.49"/><circle cx="0.0" cy="118.8" r="0.6" fill="#fff" opacity="0.61"/><circle cx="150.4" cy="55.4" r="1" fill="#fff" opacity="0.73"/><circle cx="300.8" cy="137.3" r="1.4" fill="#fff" opacity="0.25"/><circle cx="140.8" cy="73.9" r="0.6" fill="#fff" opacity="0.37"/><circle cx="291.2" cy="10.6" r="1" fill="#fff" opacity="0.49"/><circle cx="131.2" cy="92.4" r="1.4" fill="#fff" opacity="0.61"/><circle cx="281.6" cy="29.0" r="0.6" fill="#fff" opacity="0.73"/><circle cx="121.6" cy="110.9" r="1" fill="#fff" opacity="0.25"/><circle cx="272.0" cy="47.5" r="1.4" fill="#fff" opacity="0.37"/><circle cx="112.0" cy="129.4" r="0.6" fill="#fff" opacity="0.49"/><circle cx="262.4" cy="66.0" r="1" fill="#fff" opacity="0.61"/><circle cx="102.4" cy="2.6" r="1.4" fill="#fff" opacity="0.73"/><circle cx="252.8" cy="84.5" r="0.6" fill="#fff" opacity="0.25"/><circle cx="92.8" cy="21.1" r="1" fill="#fff" opacity="0.37"/><circle cx="243.2" cy="103.0" r="1.4" fill="#fff" opacity="0.49"/><circle cx="83.2" cy="39.6" r="0.6" fill="#fff" opacity="0.61"/><circle cx="233.6" cy="121.4" r="1" fill="#fff" opacity="0.73"/><circle cx="73.6" cy="58.1" r="1.4" fill="#fff" opacity="0.25"/><circle cx="224.0" cy="139.9" r="0.6" fill="#fff" opacity="0.37"/><circle cx="64.0" cy="76.6" r="1" fill="#fff" opacity="0.49"/><circle cx="214.4" cy="13.2" r="1.4" fill="#fff" opacity="0.61"/><circle cx="54.4" cy="95.0" r="0.6" fill="#fff" opacity="0.73"/><circle cx="204.8" cy="31.7" r="1" fill="#fff" opacity="0.25"/><circle cx="44.8" cy="113.5" r="1.4" fill="#fff" opacity="0.37"/><circle cx="195.2" cy="50.2" r="0.6" fill="#fff" opacity="0.49"/>
  <!-- moon / energy orb -->
  <circle cx="249.60000000000002" cy="86.39999999999999" r="51.839999999999996" fill="#3b82f6" opacity="0.15" filter="url(#blur)"/>
  <circle cx="249.60000000000002" cy="86.39999999999999" r="28.799999999999997" fill="#93c5fd" opacity="0.9"/>
  <!-- distant mountains -->
  <path d="M0 297.6 L64 230.39999999999998 L121.6 278.4 L176 201.6 L230.39999999999998 264 L320 240 L320 480 L0 480Z" fill="#080816" opacity="0.85"/>
  <!-- city / forest silhouette -->
  <path d="M0 345.59999999999997 L22.857142857142858 311.59999999999997 L49.52380952380952 294.59999999999997 L76.19047619047619 317.59999999999997 L102.85714285714286 300.59999999999997 L129.52380952380952 323.59999999999997 L156.1904761904762 306.59999999999997 L182.85714285714286 329.59999999999997 L209.52380952380955 312.59999999999997 L236.19047619047618 295.59999999999997 L262.85714285714283 318.59999999999997 L289.5238095238095 301.59999999999997 L316.19047619047615 324.59999999999997 L320 345.59999999999997 L320 480 L0 480Z" fill="#000" opacity="0.55"/>
  <!-- speed lines -->
  <g opacity="0.12" stroke="#93c5fd" stroke-width="1.5">
    <line x1="0" y1="168" x2="112" y2="182.4"/>
    <line x1="0" y1="201.6" x2="89.60000000000001" y2="211.2"/>
    <line x1="320" y1="144" x2="208" y2="158.4"/>
  </g>
  <!-- character silhouette -->
  <g transform="translate(126.4 134.4)">
    <ellipse cx="40" cy="95" rx="55" ry="18" fill="#3b82f6" opacity="0.35" filter="url(#blur)"/>
    <path d="M38 18 C56 4 70 20 66 40 C78 48 82 64 76 82 L78 124 L2 124 L6 82 C0 64 6 48 18 40 C14 18 28 4 38 18Z" fill="#030712"/>
      <circle cx="34" cy="40" r="2.5" fill="#93c5fd"/><circle cx="46" cy="40" r="2.5" fill="#93c5fd"/>
      <path d="M0 60 L40 40 L44 110 L8 115Z" fill="#3b82f6" opacity="0.35"/>
      <path d="M60 55 L100 35 L104 105 L64 110Z" fill="#93c5fd" opacity="0.25"/>
  </g>
  <!-- foreground cinematic bars -->
  <rect y="476" width="320" height="4" fill="#3b82f6" opacity="0.6"/>
  <rect width="320" height="3" fill="#3b82f6" opacity="0.35"/>
</svg>