<svg xmlns="http://www.w3.org/2000/svg" viewBox="0 0 320 480" fill="none">
  <defs>
    <linearGradient id="sky" x1="0" y1="0" x2="0" y2="1">
      <stop offset="0%" stop-color="#050510"/>
      <stop offset="45%" stop-color="#1e1040"/>
      <stop offset="100%" stop-color="#4c1d95"/>
    </linearGradient>
    <radialGradient id="glow" cx="50%" cy="70%" r="55%">
      <stop offset="0%" stop-color="#818cf8" stop-opacity="0.45"/>
      <stop offset="100%" stop-color="#6366f1" stop-opacity="0"/>
    </radialGradient>
    <filter id="blur"><feGaussianBlur stdDeviation="8"/></filter>
  </defs>
  <rect width="320" height="480" fill="url(#sky)"/>
  <rect width="320" height="480" fill="url(#glow)"/>
  <!-- stars -->
  <circle cx="64.0" cy="18.5" r="0.6" fill="#fff" opacity="0.25"/><circle cx="214.4" cy="100.3" r="1" fill="#fff" opacity="0.37"/><circle cx="54.4" cy="37.0" r="1.4" fill="#fff" opacity="0.49"/><circle cx="204.8" cy="118.8" r="0.6" fill="#fff" opacity="0.61"/><circle cx="44.8" cy="55.4" r="1" fill="#fff" opacity="0.73"/><circle cx="195.2" cy="137.3" r="1.4" fill="#fff" opacity="0.25"/><circle cx="35.2" cy="73.9" r="0.6" fill="#fff" opacity="0.37"/><circle cx="185.6" cy="10.6" r="1" fill="#fff" opacity="0.49"/><circle cx="25.6" cy="92.4" r="1.4" fill="#fff" opacity="0.61"/><circle cx="176.0" cy="29.0" r="0.6" fill="#fff" opacity="0.73"/><circle cx="16.0" cy="110.9" r="1" fill="#fff" opacity="0.25"/><circle cx="166.4" cy="47.5" r="1.4" fill="#fff" opacity="0.37"/><circle cx="6.4" cy="129.4" r="0.6" fill="#fff" opacity="0.49"/><circle cx="156.8" cy="66.0" r="1" fill="#fff" opacity="0.61"/><circle cx="307.2" cy="2.6" r="1.4" fill="#fff" opacity="0.73"/><circle cx="147.2" cy="84.5" r="0.6" fill="#fff" opacity="0.25"/><circle cx="297.6" cy="21.1" r="1" fill="#fff" opacity="0.37"/><circle cx="137.6" cy="103.0" r="1.4" fill="#fff" opacity="0.49"/><circle cx="288.0" cy="39.6" r="0.6" fill="#fff" opacity="0.61"/><circle cx="128.0" cy="121.4" r="1" fill="#fff" opacity="0.73"/><circle cx="278.4" cy="58.1" r="1.4" fill="#fff" opacity="0.25"/><circle cx="118.4" cy="139.9" r="0.6" fill="#fff" opacity="0.37"/><circle cx="268.8" cy="76.6" r="1" fill="#fff" opacity="0.49"/><circle cx="108.8" cy="13.2" r="1.4" fill="#fff" opacity="0.61"/><circle cx="259.2" cy="95.0" r="0.6" fill="#fff" opacity="0.73"/><circle cx="99.2" cy="31.7" r="1" fill="#fff" opacity="0.25"/><circle cx="249.6" cy="113.5" r="1.4" fill="#fff" opacity="0.37"/><circle cx="89.6" cy="50.2" r="0.6" fill="#fff" opacity="0.49"/>
  <!-- moon / energy orb -->
  <circle cx="249.60000000000002" cy="86.39999999999999" r="51.839999999999996" fill="#6366f1" opacity="0.15" filter="url(#blur)"/>
  <circle cx="249.60000000000002" cy="86.39999999999999" r="28.799999999999997" fill="#818cf8" opacity="0.9"/>
  <!-- distant mountains -->
  <path d="M0 297.6 L64 230.39999999999998 L121.6 278.4 L176 201.6 L230.39999999999998 264 L320 240 L320 480 L0 480Z" fill="#0a0614" opacity="0.85"/>
  <!-- city / forest silhouette -->
  <path d="M0 345.59999999999997 L22.857142857142858 321.59999999999997 L49.52380952380952 304.59999999999997 L76.19047619047619 327.59999999999997 L102.85714285714286 310.59999999999997 L129.52380952380952 293.59999999999997 L156.1904761904762 316.59999999999997 L182.85714285714286 299.59999999999997 L209.52380952380955 322.59999999999997 L236.19047619047618 305.59999999999997 L262.85714285714283 328.59999999999997 L289.5238095238095 311.59999999999997 L316.19047619047615 294.59999999999997 L320 345.59999999999997 L320 480 L0 480Z" fill="#000" opacity="0.55"/>
  <!-- speed lines -->
  <g opacity="0.12" stroke="#818cf8" stroke-width="1.5">
    <line x1="0" y1="168" x2="112" y2="182.4"/>
    <line x1="0" y1="201.6" x2="89.60000000000001" y2="211.2"/>
    <line x1="320" y1="144" x2="208" y2="158.4"/>
  </g>
  <!-- character silhouette -->
  <g transform="translate(126.4 134.4)">
    <ellipse cx="40" cy="95" rx="55" ry="18" fill="#6366f1" opacity="0.35" filter="url(#blur)"/>
    <path d="M38 20 C54 6 66 22 62 42 C74 50 78 64 72 80 L74 122 L6 122 L10 80 C4 64 10 50 20 42 C16 22 26 6 38 20Z" fill="#08040f"/>
      <path d="M26 18 C30 2 50 2 54 18 C48 10 32 10 26 18Z" fill="#0f0820"/><circle cx="34" cy="40" r="2.5" fill="#818cf8"/><circle cx="46" cy="40" r="2.5" fill="#818cf8"/>
      <path d="M70 48 L92 40 L96 88 L74 92Z" fill="#6366f1" opacity="0.6"/>
  </g>
  <!-- foreground cinematic bars -->
  <rect y="476" width="320" height="4" fill="#6366f1" opacity="0.6"/>
  <rect width="320" height="3" fill="#6366f1" opacity="0.35"/>
</svg>