<svg xmlns="http://www.w3.org/2000/svg" viewBox="0 0 320 480" fill="none">
  <defs>
    <linearGradient id="sky" x1="0" y1="0" x2="0" y2="1">
      <stop offset="0%" stop-color="#1a1025"/>
      <stop offset="45%" stop-color="#4a3f6b"/>
      <stop offset="100%" stop-color="#9d8ec4"/>
    </linearGradient>
    <radialGradient id="glow" cx="50%" cy="70%" r="55%">
      <stop offset="0%" stop-color="#fce7f3" stop-opacity="0.45"/>
      <stop offset="100%" stop-color="#f9a8d4" stop-opacity="0"/>
    </radialGradient>
    <filter id="blur"><feGaussianBlur stdDeviation="8"/></filter>
  </defs>
  <rect width="320" height="480" fill="url(#sky)"/>
  <rect width="320" height="480" fill="url(#glow)"/>
  <!-- stars -->
  <circle cx="230.4" cy="18.5" r="0.6" fill="#fff" opacity="0.25"/><circle cx="70.4" cy="100.3" r="1" fill="#fff" opacity="0.37"/><circle cx="220.8" cy="37.0" r="1.4" fill="#fff" opacity="0.49"/><circle cx="60.8" cy="118.8" r="0.6" fill="#fff" opacity="0.61"/><circle cx="211.2" cy="55.4" r="1" fill="#fff" opacity="0.73"/><circle cx="51.2" cy="137.3" r="1.4" fill="#fff" opacity="0.25"/><circle cx="201.6" cy="73.9" r="0.6" fill="#fff" opacity="0.37"/><circle cx="41.6" cy="10.6" r="1" fill="#fff" opacity="0.49"/><circle cx="192.0" cy="92.4" r="1.4" fill="#fff" opacity="0.61"/><circle cx="32.0" cy="29.0" r="0.6" fill="#fff" opacity="0.73"/><circle cx="182.4" cy="110.9" r="1" fill="#fff" opacity="0.25"/><circle cx="22.4" cy="47.5" r="1.4" fill="#fff" opacity="0.37"/><circle cx="172.8" cy="129.4" r="0.6" fill="#fff" opacity="0.49"/><circle cx="12.8" cy="66.0" r="1" fill="#fff" opacity="0.61"/><circle cx="163.2" cy="2.6" r="1.4" fill="#fff" opacity="0.73"/><circle cx="3.2" cy="84.5" r="0.6" fill="#fff" opacity="0.25"/><circle cx="153.6" cy="21.1" r="1" fill="#fff" opacity="0.37"/><circle cx="304.0" cy="103.0" r="1.4" fill="#fff" opacity="0.49"/><circle cx="144.0" cy="39.6" r="0.6" fill="#fff" opacity="0.61"/><circle cx="294.4" cy="121.4" r="1" fill="#fff" opacity="0.73"/><circle cx="134.4" cy="58.1" r="1.4" fill="#fff" opacity="0.25"/><circle cx="284.8" cy="139.9" r="0.6" fill="#fff" opacity="0.37"/><circle cx="124.8" cy="76.6" r="1" fill="#fff" opacity="0.49"/><circle cx="275.2" cy="13.2" r="1.4" fill="#fff" opacity="0.61"/><circle cx="115.2" cy="95.0" r="0.6" fill="#fff" opacity="0.73"/><circle cx="265.6" cy="31.7" r="1" fill="#fff" opacity="0.25"/><circle cx="105.6" cy="113.5" r="1.4" fill="#fff" opacity="0.37"/><circle cx="256.0" cy="50.2" r="0.6" fill="#fff" opacity="0.49"/>
  <!-- moon / energy orb -->
  <circle cx="249.60000000000002" cy="86.39999999999999" r="51.839999999999996" fill="#f9a8d4" opacity="0.15" filter="url(#blur)"/>
  <circle cx="249.60000000000002" cy="86.39999999999999" r="28.799999999999997" fill="#fce7f3" opacity="0.9"/>
  <!-- distant mountains -->
  <path d="M0 297.6 L64 230.39999999999998 L121.6 278.4 L176 201.6 L230.39999999999998 264 L320 240 L320 480 L0 480Z" fill="#1e1528" opacity="0.85"/>
  <!-- city / forest silhouette -->
  <path d="M0 345.59999999999997 L22.857142857142858 317.59999999999997 L49.52380952380952 300.59999999999997 L76.19047619047619 323.59999999999997 L102.85714285714286 306.59999999999997 L129.52380952380952 329.59999999999997 L156.1904761904762 312.59999999999997 L182.85714285714286 295.59999999999997 L209.52380952380955 318.59999999999997 L236.19047619047618 301.59999999999997 L262.85714285714283 324.59999999999997 L289.5238095238095 307.59999999999997 L316.19047619047615 330.59999999999997 L320 345.59999999999997 L320 480 L0 480Z" fill="#000" opacity="0.55"/>
  <!-- speed lines -->
  <g opacity="0.12" stroke="#fce7f3" stroke-width="1.5">
    <line x1="0" y1="168" x2="112" y2="182.4"/>
    <line x1="0" y1="201.6" x2="89.60000000000001" y2="211.2"/>
    <line x1="320" y1="144" x2="208" y2="158.4"/>
  </g>
  <!-- character silhouette -->
  <g transform="translate(126.4 134.4)">
    <ellipse cx="40" cy="95" rx="55" ry="18" fill="#f9a8d4" opacity="0.35" filter="url(#blur)"/>
    <path d="M40 24 C52 12 58 28 54 46 C64 54 68 68 62 84 L64 118 L16 118 L18 84 C12 68 16 54 26 46 C22 28 30 14 40 24Z" fill="#1a1028"/>
      <path d="M28 20 C32 6 50 6 54 20 C48 14 34 14 28 20Z" fill="#2a1a3d"/>
      <path d="M20 50 L8 90 L32 95 L36 55Z" fill="#f9a8d4" opacity="0.4"/><circle cx="34" cy="40" r="2.5" fill="#fce7f3"/><circle cx="46" cy="40" r="2.5" fill="#fce7f3"/>
  </g>
  <!-- foreground cinematic bars -->
  <rect y="476" width="320" height="4" fill="#f9a8d4" opacity="0.6"/>
  <rect width="320" height="3" fill="#f9a8d4" opacity="0.35"/>
</svg>